<svg width="1008" height="1948" viewBox="0 0 1008 1948" fill="none" xmlns="http://www.w3.org/2000/svg">
<path d="M948 0L60 0C26.8629 0 0 26.8629 0 60L0 1888C0 1921.14 26.8629 1948 60 1948L948 1948C981.137 1948 1008 1921.14 1008 1888L1008 60C1008 26.8629 981.137 0 948 0Z" fill="url(#paint0_radial_2372_1984)"/>
<path d="M973.002 76.9248L972.982 76.8619C972.982 76.8619 954.045 76.9248 940.277 77.0015H936.835L932.883 81.0037L928.941 84.9855L928.981 98.0494C929.001 105.237 929.02 111.124 929.04 111.153C929.06 111.21 934.152 111.216 940.345 111.216H951.6L951.561 104.928L951.541 98.6403H941.57V89.6503L960.595 89.5461C960.595 89.5461 960.655 109.976 960.606 120.183C960.566 120.183 944.043 120.246 923.878 120.266L887.212 120.317L887.251 83.6861L887.291 47.056L902.578 47.1189C910.994 47.1189 917.912 47.1818 917.948 47.1818C917.987 47.1818 918.007 48.5798 917.987 50.2498C917.972 51.9203 917.948 56.1634 917.948 59.6767L917.938 66.0661L913.415 66.129L908.893 66.1919V61.2041C908.894 56.6709 908.878 56.2465 908.678 56.2268C908.367 56.1698 908.58 56.1757 902.19 56.1757H896.334V67.3906C896.336 73.5595 896.373 78.6674 896.413 78.7371C896.452 78.8158 898.983 78.8472 902.779 78.8099C906.231 78.8099 912.113 78.7588 915.856 78.7588H922.67L924.188 77.174C925.019 76.2935 926.781 74.5064 928.099 73.1921L930.492 70.7949L930.512 67.4424C930.61 48.5013 930.551 34.713 930.551 34.713L77.3515 34.713C77.3515 34.713 77.2923 48.5013 77.3909 67.4424L77.4106 70.7949L79.8041 73.1921C81.1207 74.5074 82.8835 76.2934 83.715 77.174L85.2326 78.7588H92.0466C95.7898 78.7588 101.672 78.8099 105.124 78.8099C108.919 78.8669 111.451 78.8145 111.49 78.7371C111.529 78.6585 111.569 73.5595 111.569 67.3906V56.1757H105.712C99.3227 56.1757 99.5356 56.1757 99.2243 56.2268C99.0253 56.2268 99.0115 56.6689 99.0115 61.2041V66.1513L94.4894 66.1002L89.9671 66.0373L89.9566 59.6479C89.9566 56.1351 89.9369 51.8922 89.9172 50.2211C89.8975 48.552 89.9198 47.1535 89.9566 47.1535C89.996 47.1535 96.9107 47.0906 105.326 47.0906L120.614 47.0277L120.653 83.6584L120.693 120.289L84.0261 120.226C63.8612 120.226 47.3382 120.153 47.2986 120.153C47.2592 109.947 47.3091 89.5159 47.3091 89.5159L66.3349 89.6103L66.3349 98.6002H56.3637L56.344 104.888L56.3046 111.176H67.5593C73.7526 111.176 78.8449 111.176 78.8646 111.125C78.8843 111.068 78.904 105.209 78.9237 98.0212L78.9631 84.9578L75.0216 80.9759L71.0697 76.9732H67.6272C53.8598 76.8946 34.9229 76.8337 34.9229 76.8337L34.9124 76.8966L34.873 76.9791C34.9913 622.564 34.9322 1304.6 34.873 1870.82V1870.88L34.8927 1870.93C34.8927 1870.93 53.8297 1870.88 67.5971 1870.8H71.0398L74.9915 1866.79L78.9332 1862.81L78.8938 1849.75C78.8741 1842.56 78.8543 1836.67 78.8346 1836.64C78.8149 1836.59 73.7228 1836.59 67.5293 1836.59H56.2746L56.314 1842.87L56.3338 1849.16H66.305L66.305 1858.15L47.2791 1858.25C47.2791 1858.25 47.2199 1837.82 47.2686 1827.61C47.3081 1827.61 63.8312 1827.55 83.9963 1827.53L120.663 1827.48L120.623 1864.11L120.584 1900.74L105.296 1900.68C96.8807 1900.68 89.9631 1900.62 89.9268 1900.62C89.8874 1900.62 89.8677 1899.22 89.8874 1897.55C89.903 1895.88 89.9268 1891.64 89.9268 1888.12L89.9371 1881.73L94.4594 1881.68L98.9816 1881.62V1886.6C98.9808 1891.14 98.9973 1891.56 99.1944 1891.58C99.5058 1891.64 99.2929 1891.64 105.682 1891.64H111.539V1880.43C111.536 1874.26 111.499 1869.15 111.46 1869.08C111.421 1869 108.89 1868.96 105.094 1869C101.642 1869 95.7598 1869.06 92.0166 1869.06H85.2027L83.6851 1870.64C82.8534 1871.52 81.0913 1873.31 79.774 1874.63L77.3804 1877.02L77.3607 1880.38C77.2622 1899.32 77.2622 1913.04 77.3213 1913.11C77.4002 1913.16 87.0314 1913.18 98.7713 1913.2C360.386 1913.09 647.457 1912.88 909.072 1913.2C920.811 1913.2 930.442 1913.14 930.521 1913.11C930.6 1913.05 930.58 1899.32 930.482 1880.38L930.462 1877.02L928.069 1874.63C926.752 1873.31 924.989 1871.52 924.158 1870.64L922.64 1869.06H915.826C912.083 1869.06 906.2 1869 902.748 1869C898.953 1868.94 896.422 1869 896.383 1869.08C896.343 1869.16 896.304 1874.26 896.304 1880.43V1891.64H902.16C908.55 1891.64 908.337 1891.64 908.648 1891.58C908.847 1891.58 908.851 1891.14 908.851 1886.6V1881.66L913.374 1881.72L917.896 1881.77L917.906 1888.16C917.906 1891.68 917.926 1895.92 917.945 1897.59C917.965 1899.26 917.941 1900.66 917.906 1900.66C917.867 1900.66 910.952 1900.72 902.537 1900.72L887.249 1900.78L887.209 1864.15L887.17 1827.52L923.836 1827.57C944.001 1827.57 960.524 1827.65 960.564 1827.65C960.604 1837.86 960.554 1858.29 960.554 1858.29L941.528 1858.19V1849.2H951.499L951.519 1842.91L951.558 1836.63H940.314C934.12 1836.63 929.028 1836.63 929.008 1836.69C928.989 1836.74 928.969 1842.6 928.949 1849.79L928.91 1862.85L932.852 1866.83L936.803 1870.84H940.246C954.013 1870.92 972.95 1870.98 972.95 1870.98L972.961 1870.92L973 1870.84C972.902 1321.85 972.961 636.704 972.99 77.0005L973.002 76.9248ZM963.387 44.1746L940.348 44.1746L940.359 67.1423H963.387L963.387 44.1746ZM963.348 1880.7H940.319L940.309 1903.66H963.347L963.348 1880.7ZM961.107 1815.32C961.107 1815.32 935.773 1815.26 923.106 1815.14C911.565 1815.08 897.332 1815.04 891.482 1815.04H887.204L874.544 1814.79L874.445 1827.4L874.648 1892.22L874.707 1900.61L133.116 1900.61L133.175 1892.22C133.175 1892.22 133.333 1839.99 133.378 1827.4L133.279 1814.79L120.619 1815.04H116.342C110.491 1815.04 96.2583 1815.12 84.7169 1815.16C72.0506 1815.3 46.7162 1815.32 46.7162 1815.32C46.6768 1315.02 46.7213 632.763 46.7359 132.47C46.7359 132.47 72.0701 132.521 84.7364 132.641C96.2778 132.698 110.511 132.745 116.361 132.745H120.639L133.299 133L133.398 120.383L133.193 55.5638L133.134 47.1735L874.734 47.1735L874.675 55.5638C874.675 55.5638 874.517 107.799 874.47 120.383L874.569 133L887.229 132.745H891.506C897.357 132.745 911.59 132.663 923.131 132.621C935.797 132.486 961.132 132.47 961.132 132.47C961.171 632.774 961.131 1315.01 961.107 1815.32ZM919.552 88.068H896.513L896.523 111.036H919.542L919.552 88.068ZM919.532 1859.77L919.522 1836.8H896.503L896.493 1859.77H919.532ZM111.361 88.0071L88.3219 88.0071L88.3324 110.975H111.351L111.361 88.0071ZM111.341 1859.71L111.33 1836.74H88.3121L88.3016 1859.71H111.341ZM67.5448 44.1137L44.5062 44.1137L44.5062 67.0814H67.5348L67.5448 44.1137ZM67.5054 1903.6L67.495 1880.63H44.4663V1903.6H67.5054Z" fill="#613F26"/>
<defs>
<radialGradient id="paint0_radial_2372_1984" cx="0" cy="0" r="1" gradientUnits="userSpaceOnUse" gradientTransform="translate(504 974) rotate(-90) scale(974 504)">
<stop stop-color="#F8E8DB"/>
<stop offset="1" stop-color="#EBD4C0"/>
</radialGradient>
</defs>
</svg>
