<svg width="1008" height="1766" viewBox="0 0 1008 1766" fill="none" xmlns="http://www.w3.org/2000/svg">
<path d="M948 0L60 0C26.8629 0 0 26.8629 0 60L0 1706C0 1739.14 26.8629 1766 60 1766L948 1766C981.137 1766 1008 1739.14 1008 1706L1008 60C1008 26.8629 981.137 0 948 0Z" fill="url(#paint0_radial_2372_1887)"/>
<path d="M973.002 76.9565L972.982 76.8935C972.982 76.8935 954.045 76.9565 940.277 77.0331H936.835L932.883 81.0353L928.941 85.0172L928.981 98.0811C929.001 105.268 929.02 111.155 929.04 111.185C929.06 111.242 934.152 111.248 940.345 111.248H951.6L951.561 104.96L951.541 98.6719H941.57V89.6819L960.595 89.5778C960.595 89.5778 960.655 110.008 960.606 120.215C960.566 120.215 944.043 120.278 923.878 120.297L887.212 120.348L887.251 83.7178L887.291 47.0876L902.578 47.1505C910.994 47.1505 917.912 47.2134 917.948 47.2134C917.987 47.2134 918.007 48.6114 917.987 50.2815C917.972 51.952 917.948 56.195 917.948 59.7083L917.938 66.0977L913.415 66.1607L908.893 66.2236V61.2358C908.894 56.7026 908.877 56.2782 908.678 56.2584C908.367 56.2014 908.58 56.2073 902.19 56.2073H896.334V67.4222C896.336 73.5912 896.373 78.6991 896.413 78.7688C896.452 78.8474 898.983 78.8788 902.779 78.8415C906.231 78.8415 912.113 78.7904 915.856 78.7904H922.67L924.188 77.2056C925.019 76.3252 926.781 74.538 928.099 73.2237L930.492 70.8266L930.512 67.474C930.61 48.533 930.61 34.8096 930.551 34.7446C930.472 34.6876 920.841 34.662 909.101 34.6404C647.487 34.7603 360.416 34.9681 98.8014 34.6404C87.0613 34.6404 77.4303 34.7033 77.3515 34.7446C77.2727 34.8016 77.2923 48.533 77.3909 67.474L77.4106 70.8266L79.8041 73.2237C81.1207 74.539 82.8835 76.3251 83.715 77.2056L85.2326 78.7904H92.0466C95.7898 78.7904 101.672 78.8415 105.124 78.8415C108.919 78.8985 111.451 78.8462 111.49 78.7688C111.529 78.6901 111.569 73.5912 111.569 67.4222V56.2073H105.712C99.3227 56.2073 99.5355 56.2073 99.2243 56.2584C99.0253 56.2584 99.0115 56.7005 99.0115 61.2358V66.183L94.4894 66.1319L89.9671 66.069L89.9566 59.6795C89.9566 56.1668 89.9369 51.9238 89.9172 50.2527C89.8975 48.5836 89.9198 47.1852 89.9566 47.1852C89.996 47.1852 96.9107 47.1222 105.326 47.1222L120.614 47.0593L120.653 83.69L120.693 120.321L84.0261 120.258C63.8612 120.258 47.3382 120.185 47.2986 120.185C47.2592 109.978 47.3091 89.5475 47.3091 89.5475L66.3349 89.6419L66.3349 98.6318H56.3637L56.344 104.92L56.3046 111.208H67.5593C73.7526 111.208 78.8449 111.208 78.8646 111.157C78.8843 111.1 78.904 105.241 78.9237 98.0528L78.9631 84.9894L75.0216 81.0076L71.0697 77.0049H67.6272C53.8598 76.9262 34.9229 76.8653 34.9229 76.8653L34.9124 76.9282L34.873 77.0108C34.9913 622.596 34.9322 1122.6 34.873 1688.82V1688.87L34.8927 1688.93C34.8927 1688.93 53.8297 1688.87 67.5971 1688.8H71.0398L74.9915 1684.79L78.9332 1680.81L78.8938 1667.75C78.8741 1660.56 78.8543 1654.67 78.8346 1654.64C78.8149 1654.59 73.7228 1654.59 67.5293 1654.59H56.2746L56.314 1660.87L56.3338 1667.16H66.305V1676.15L47.2791 1676.25C47.2791 1676.25 47.2199 1655.82 47.2686 1645.61C47.308 1645.61 63.8312 1645.55 83.9963 1645.53L120.663 1645.47L120.623 1682.11L120.584 1718.74L105.296 1718.68C96.8807 1718.68 89.9631 1718.62 89.9268 1718.62C89.8874 1718.62 89.8677 1717.22 89.8874 1715.55C89.903 1713.88 89.9268 1709.64 89.9268 1706.12L89.9371 1699.73L94.4594 1699.68L98.9816 1699.62V1704.6C98.9808 1709.14 98.9973 1709.56 99.1944 1709.58C99.5058 1709.64 99.2929 1709.64 105.682 1709.64H111.539V1698.43C111.536 1692.26 111.499 1687.15 111.46 1687.08C111.421 1687 108.89 1686.96 105.094 1687C101.642 1687 95.7598 1687.06 92.0166 1687.06H85.2027L83.6851 1688.64C82.8534 1689.52 81.0913 1691.31 79.774 1692.63L77.3804 1695.02L77.3607 1698.38C77.2622 1717.32 77.2622 1731.04 77.3213 1731.11C77.4002 1731.16 87.0314 1731.18 98.7713 1731.2C360.386 1731.09 647.457 1730.88 909.071 1731.2C920.811 1731.2 930.442 1731.14 930.521 1731.11C930.6 1731.05 930.58 1717.32 930.482 1698.38L930.462 1695.02L928.069 1692.63C926.752 1691.31 924.989 1689.52 924.157 1688.64L922.64 1687.06H915.826C912.083 1687.06 906.2 1687 902.748 1687C898.953 1686.94 896.422 1687 896.383 1687.08C896.343 1687.16 896.304 1692.26 896.304 1698.43V1709.64H902.16C908.55 1709.64 908.337 1709.64 908.648 1709.58C908.847 1709.58 908.851 1709.14 908.851 1704.6V1699.66L913.373 1699.72L917.896 1699.77L917.906 1706.16C917.906 1709.68 917.926 1713.92 917.945 1715.59C917.965 1717.26 917.941 1718.66 917.906 1718.66C917.866 1718.66 910.952 1718.72 902.537 1718.72L887.249 1718.78L887.209 1682.15L887.17 1645.52L923.836 1645.57C944.001 1645.57 960.524 1645.65 960.564 1645.65C960.603 1655.86 960.554 1676.29 960.554 1676.29L941.528 1676.19V1667.2H951.499L951.519 1660.91L951.558 1654.63H940.314C934.12 1654.63 929.028 1654.63 929.008 1654.69C928.989 1654.74 928.969 1660.6 928.949 1667.79L928.91 1680.85L932.851 1684.83L936.803 1688.84H940.246C954.013 1688.92 972.95 1688.97 972.95 1688.97L972.961 1688.92L973 1688.84C972.901 1139.85 972.961 636.736 972.99 77.0322L973.002 76.9565ZM963.387 44.2062L940.348 44.2062L940.359 67.1739H963.387L963.387 44.2062ZM963.348 1698.7H940.319L940.309 1721.66H963.347L963.348 1698.7ZM961.107 1633.32C961.107 1633.32 935.773 1633.26 923.106 1633.14C911.565 1633.08 897.332 1633.04 891.481 1633.04H887.204L874.544 1632.79L874.445 1645.4L874.648 1710.22L874.707 1718.61L133.116 1718.61L133.175 1710.22C133.175 1710.22 133.333 1657.99 133.378 1645.4L133.279 1632.79L120.619 1633.04H116.342C110.491 1633.04 96.2583 1633.12 84.7169 1633.16C72.0506 1633.3 46.7162 1633.32 46.7162 1633.32C46.6767 1133.02 46.7213 632.795 46.7359 132.502C46.7359 132.502 72.0701 132.553 84.7363 132.673C96.2778 132.73 110.511 132.777 116.361 132.777H120.639L133.299 133.032L133.398 120.415L133.193 55.5954L133.134 47.2051L874.734 47.2051L874.675 55.5954C874.675 55.5954 874.517 107.83 874.47 120.415L874.569 133.032L887.229 132.777H891.506C897.356 132.777 911.59 132.694 923.131 132.653C935.797 132.517 961.132 132.502 961.132 132.502C961.171 632.806 961.131 1133.01 961.107 1633.32ZM919.552 88.0996H896.513L896.523 111.068H919.542L919.552 88.0996ZM919.532 1677.77L919.522 1654.8H896.503L896.493 1677.77H919.532ZM111.361 88.0388L88.3219 88.0388L88.3324 111.006H111.351L111.361 88.0388ZM111.341 1677.71L111.33 1654.74H88.3121L88.3016 1677.71H111.341ZM67.5448 44.1454L44.5062 44.1454L44.5062 67.113H67.5348L67.5448 44.1454ZM67.5054 1721.6L67.495 1698.63H44.4663V1721.6H67.5054Z" fill="#613F26"/>
<defs>
<radialGradient id="paint0_radial_2372_1887" cx="0" cy="0" r="1" gradientUnits="userSpaceOnUse" gradientTransform="translate(504 883) rotate(-90) scale(883 504)">
<stop stop-color="#F8E8DB"/>
<stop offset="1" stop-color="#EBD4C0"/>
</radialGradient>
</defs>
</svg>
